# xmcd
#
# Track frame offsets:
#	150
#	13856
#	35859
#	49238
#	59839
#	80714
#	104416
#	118723
#	131547
#	147353
#	160887
#	173670
#	191506
#	206368
#	220948
#	233302
#	248185
#	264955
#	284345
#	297524
#
# Disc length: 4149 seconds
#
# Revision: 1
# Processed by: cddbd v1.5.2PL0 Copyright (c) Steve Scherf et al.
# Submitted via: audiograbber 1.83.01
#
DISCID=32103314
DTITLE=João Neto and Frederico - só modão 2
DYEAR=2009
DGENRE=sertaneja
TTITLE0=boate azul
TTITLE1=dama de vermelho-fruto especial- esta noite eu queria...
TTITLE2=revelação
TTITLE3=chalana
TTITLE4=bijuteria
TTITLE5=canoeiro - peito sadio
TTITLE6=o cara errado
TTITLE7=sublime renuncia
TTITLE8=de igual pra igual
TTITLE9=se entrega amor
TTITLE10=saudade da minha terra
TTITLE11=galopeira-vá pro inferno c/ seu amor-pedaço de poema
TTITLE12=brigas
TTITLE13=é pra valer
TTITLE14=goiás é mais
TTITLE15=majestade o sabiá
TTITLE16=a sua vista
TTITLE17=mais 1 noite sem vc - cade vc - tá faltando amor
TTITLE18=pagode em brasilia
TTITLE19=ipê florido
EXTD=
EXTT0=
EXTT1=
EXTT2=
EXTT3=
EXTT4=
EXTT5=
EXTT6=
EXTT7=
EXTT8=
EXTT9=
EXTT10=
EXTT11=
EXTT12=
EXTT13=
EXTT14=
EXTT15=
EXTT16=
EXTT17=
EXTT18=
EXTT19=
PLAYORDER=
